<svg xmlns="http://www.w3.org/2000/svg" viewBox="0 0 36.79 48"><defs><style>.a{fill:#373737;}.b{fill:#ffcb1e;}.c{fill:#fff;}.d{fill:#ff5538;}</style></defs><path class="a" d="M28,27a1,1,0,0,0-1,1v2a1,1,0,0,0,2,0V28A1,1,0,0,0,28,27Z"/><path class="a" d="M28,15a1,1,0,0,0,1-1V12a1,1,0,0,0-2,0v2A1,1,0,0,0,28,15Z"/><path class="a" d="M33.2,24a1,1,0,0,0,.36,1.37l1.73,1a1,1,0,1,0,1-1.74l-1.73-1A1,1,0,0,0,33.2,24Z"/><path class="a" d="M22.8,18a1,1,0,0,0-.36-1.37l-1.73-1a1,1,0,0,0-1,1.74l1.73,1A1,1,0,0,0,22.8,18Z"/><path class="a" d="M33.2,18a1,1,0,0,0,1.36.37l1.73-1a1,1,0,0,0-1-1.74l-1.73,1A1,1,0,0,0,33.2,18Z"/><path class="a" d="M22.8,24a1,1,0,0,0-1.36-.37l-1.73,1a1,1,0,0,0,1,1.74l1.73-1A1,1,0,0,0,22.8,24Z"/><circle class="b" cx="28" cy="21" r="3"/><path class="a" d="M28,25a4,4,0,1,1,4-4A4,4,0,0,1,28,25Zm0-6a2,2,0,1,0,2,2A2,2,0,0,0,28,19Z"/><path class="c" d="M13,32.08V5A4,4,0,0,0,5,5V32.08a8,8,0,1,0,8,0Z"/><path class="a" d="M9,48A9,9,0,0,1,4,31.52V5A5,5,0,0,1,14,5V31.52A9,9,0,0,1,9,48ZM9,2A3,3,0,0,0,6,5V32.08a1,1,0,0,1-.5.86A7,7,0,1,0,16,39a7,7,0,0,0-3.5-6.06,1,1,0,0,1-.5-.86V5A3,3,0,0,0,9,2Z"/><circle class="d" cx="9" cy="39" r="4"/><path class="a" d="M9,44a5,5,0,1,1,5-5A5,5,0,0,1,9,44Zm0-8a3,3,0,1,0,3,3A3,3,0,0,0,9,36Z"/><path class="a" d="M9,36a1,1,0,0,1-1-1V9a1,1,0,0,1,2,0V35A1,1,0,0,1,9,36Z"/></svg>