<svg xmlns="http://www.w3.org/2000/svg" xmlns:xlink="http://www.w3.org/1999/xlink" viewBox="0 0 92.95 92.95"><defs><style>.cls-1{fill:#43bbf7;}.cls-2{fill:url(#linear-gradient);}.cls-3{fill:#fff;}.cls-4{fill:#e6332a;}.cls-5{fill:#878787;}</style><linearGradient id="linear-gradient" x1="48.44" y1="50.81" x2="73.44" y2="75.81" gradientUnits="userSpaceOnUse"><stop offset="0" stop-color="#2a99e0"/><stop offset="0.39" stop-color="#31a3e6"/><stop offset="1" stop-color="#43bbf7"/></linearGradient></defs><g id="Camada_2" data-name="Camada 2"><g id="Layer_1" data-name="Layer 1"><circle class="cls-1" cx="46.47" cy="46.47" r="46.47"/><path class="cls-2" d="M90.72,60.69,52,17.56l-7.41,2.5L40.18,53.49,33.43,70.36,53.26,92.45A46.49,46.49,0,0,0,90.72,60.69Z"/><path class="cls-3" d="M63.22,59.89A16.75,16.75,0,1,1,46.47,43.14,16.75,16.75,0,0,1,63.22,59.89Z"/><path class="cls-3" d="M46.47,61.5a7.34,7.34,0,0,1-7.33-7.34V22.34a7.34,7.34,0,1,1,14.67,0V54.16A7.34,7.34,0,0,1,46.47,61.5Z"/><path class="cls-4" d="M56.37,59.89a9.9,9.9,0,1,1-9.9-9.9A9.9,9.9,0,0,1,56.37,59.89Z"/><path class="cls-5" d="M46.47,49.9A2.94,2.94,0,0,1,43.54,47V22.5a2.94,2.94,0,0,1,5.87,0V47A2.94,2.94,0,0,1,46.47,49.9Z"/><path class="cls-4" d="M46.47,57.09a2.93,2.93,0,0,1-2.93-2.93V31.31a2.94,2.94,0,1,1,5.87,0V54.16A2.93,2.93,0,0,1,46.47,57.09Z"/></g></g></svg>