<svg xmlns="http://www.w3.org/2000/svg" viewBox="0 0 35 48"><defs><style>.a{fill:#373737;}.b{fill:#fff;}.c{fill:#d2e2f0;}</style></defs><path class="a" d="M30.13,15.3,28,19l-2.13-3.7a1,1,0,0,0-1.74,1L26.27,20H22a1,1,0,0,0,0,2h4.27l-2.14,3.7a1,1,0,0,0,1.74,1L28,23l2.13,3.7a1,1,0,0,0,1.37.36,1,1,0,0,0,.37-1.36L29.73,22H34a1,1,0,0,0,0-2H29.73l2.14-3.7a1,1,0,0,0-.37-1.36A1,1,0,0,0,30.13,15.3Z"/><path class="b" d="M13,32.08V5A4,4,0,0,0,5,5V32.08a8,8,0,1,0,8,0Z"/><path class="a" d="M9,48A9,9,0,0,1,4,31.52V5A5,5,0,0,1,14,5V31.52A9,9,0,0,1,9,48ZM9,2A3,3,0,0,0,6,5V32.08a1,1,0,0,1-.5.86A7,7,0,1,0,16,39a7,7,0,0,0-3.5-6.06,1,1,0,0,1-.5-.86V5A3,3,0,0,0,9,2Z"/><circle class="c" cx="9" cy="39" r="4"/><path class="a" d="M9,44a5,5,0,1,1,5-5A5,5,0,0,1,9,44Zm0-8a3,3,0,1,0,3,3A3,3,0,0,0,9,36Z"/><path class="a" d="M9,36a1,1,0,0,1-1-1V29a1,1,0,0,1,2,0v6A1,1,0,0,1,9,36Z"/></svg>