<svg xmlns="http://www.w3.org/2000/svg" xmlns:xlink="http://www.w3.org/1999/xlink" viewBox="0 0 92.95 92.95"><defs><style>.cls-1{fill:#1c4064;}.cls-2{fill:url(#linear-gradient);}.cls-3{fill:#ffdd2c;}</style><linearGradient id="linear-gradient" x1="40.81" y1="45.83" x2="65.76" y2="75.68" gradientUnits="userSpaceOnUse"><stop offset="0" stop-color="#20292b"/><stop offset="0.26" stop-color="#1f2d35"/><stop offset="0.7" stop-color="#1e374e"/><stop offset="1" stop-color="#1c4064"/></linearGradient></defs><g id="Camada_2" data-name="Camada 2"><g id="Layer_1" data-name="Layer 1"><path class="cls-1" d="M93,46.47A46.48,46.48,0,1,1,46.48,0,46.48,46.48,0,0,1,93,46.47Z"/><path class="cls-2" d="M87.66,68,44.39,18.76,34.25,28.21,25.81,61.76,52.86,92.5A46.5,46.5,0,0,0,87.66,68Z"/><path class="cls-3" d="M40.48,50.56c-6.16-9.82-4.21-22.65,3.91-31.8a32.58,32.58,0,0,0-8.48,3.78c-13.76,8.63-18.68,25.55-11,37.79S50,75.49,63.73,66.86a32.65,32.65,0,0,0,7.09-6C59.05,64.2,46.64,60.38,40.48,50.56Z"/></g></g></svg>