<svg xmlns="http://www.w3.org/2000/svg" xmlns:xlink="http://www.w3.org/1999/xlink" viewBox="0 0 92.95 92.95"><defs><style>.cls-1{fill:#43bbf7;}.cls-2{fill:url(#linear-gradient);}.cls-3{fill:#ffd300;}.cls-4{fill:#ffb400;}</style><linearGradient id="linear-gradient" x1="52.87" y1="54.83" x2="74.87" y2="79.83" gradientUnits="userSpaceOnUse"><stop offset="0" stop-color="#2a99e0"/><stop offset="0.39" stop-color="#31a3e6"/><stop offset="1" stop-color="#43bbf7"/></linearGradient></defs><g id="Camada_2" data-name="Camada 2"><g id="Layer_1" data-name="Layer 1"><path class="cls-1" d="M93,46.48A46.48,46.48,0,1,1,46.48,0,46.48,46.48,0,0,1,93,46.48Z"/><path class="cls-2" d="M89.12,65,61.76,33.88,30.58,60.54l27.36,31A46.58,46.58,0,0,0,89.12,65Z"/><path class="cls-3" d="M25.64,47A20.35,20.35,0,0,0,46,67.31V26.62A20.35,20.35,0,0,0,25.64,47Z"/><path class="cls-4" d="M43.73,78.34V72.47A2.26,2.26,0,0,1,46,70.21v0a2.26,2.26,0,0,0-2.27,2.27v5.88a2.28,2.28,0,0,0,1,1.88A2.27,2.27,0,0,1,43.73,78.34Z"/><path class="cls-4" d="M45.53,12.93a2.32,2.32,0,0,1,.46,0A2.32,2.32,0,0,0,45.53,12.93Z"/><path class="cls-3" d="M26.2,63.32,22,67.48a2.27,2.27,0,0,0,1.61,3.87,2.26,2.26,0,0,0,1.6-.66l4.16-4.16a2.27,2.27,0,1,0-3.21-3.21Z"/><path class="cls-3" d="M22.54,46.75a2.26,2.26,0,0,0-2.26-2.27H14.4a2.27,2.27,0,1,0,0,4.54h5.88A2.27,2.27,0,0,0,22.54,46.75Z"/><path class="cls-3" d="M26.2,30.17A2.27,2.27,0,0,0,29.41,27l-4.16-4.15A2.27,2.27,0,0,0,22,26Z"/><path class="cls-4" d="M43.73,21V15.15a2.27,2.27,0,0,1,1.8-2.22,2.28,2.28,0,0,0-1.81,2.23V21A2.27,2.27,0,0,0,46,23.31v0A2.26,2.26,0,0,1,43.73,21Z"/><path class="cls-4" d="M43.73,15.15V21A2.26,2.26,0,0,0,46,23.29V12.89a2.32,2.32,0,0,0-.46,0A2.27,2.27,0,0,0,43.73,15.15Z"/><path class="cls-4" d="M44.72,80.22a2.3,2.3,0,0,0,1.27.39h0A2.29,2.29,0,0,1,44.72,80.22Z"/><path class="cls-4" d="M46,70.21a2.26,2.26,0,0,0-2.26,2.26v5.87A2.24,2.24,0,0,0,46,80.6Z"/><path class="cls-4" d="M66.33,47A20.34,20.34,0,0,0,46,26.62V67.31A20.35,20.35,0,0,0,66.33,47Z"/><path class="cls-4" d="M48.25,72.47v5.87a2.28,2.28,0,0,1-1,1.88,2.26,2.26,0,0,0,1-1.88V72.46A2.26,2.26,0,0,0,46,70.19v0A2.26,2.26,0,0,1,48.25,72.47Z"/><path class="cls-4" d="M46,12.89a2.28,2.28,0,0,1,.45,0A2.28,2.28,0,0,0,46,12.89Z"/><path class="cls-4" d="M69.93,22.81a2.25,2.25,0,0,0-3.2,0L62.57,27a2.26,2.26,0,0,0,3.2,3.2L69.93,26A2.26,2.26,0,0,0,69.93,22.81Z"/><path class="cls-4" d="M77.58,44.49H71.7a2.26,2.26,0,0,0,0,4.52h5.88a2.26,2.26,0,1,0,0-4.52Z"/><path class="cls-4" d="M65.77,63.33a2.26,2.26,0,0,0-3.2,3.2l4.16,4.16a2.26,2.26,0,1,0,3.2-3.2Z"/><path class="cls-4" d="M48.25,21V15.16a2.27,2.27,0,0,0-1.81-2.23,2.28,2.28,0,0,1,1.81,2.22V21A2.26,2.26,0,0,1,46,23.29v0A2.27,2.27,0,0,0,48.25,21Z"/><path class="cls-4" d="M48.25,21V15.15A2.23,2.23,0,0,0,46,12.89v10.4A2.26,2.26,0,0,0,48.25,21Z"/><path class="cls-4" d="M46,80.6h0a2.29,2.29,0,0,0,1.26-.39A2.28,2.28,0,0,1,46,80.6Z"/><path class="cls-4" d="M48.25,78.34V72.47A2.26,2.26,0,0,0,46,70.21V80.6a2.25,2.25,0,0,0,2.26-2.26Z"/></g></g></svg>