<svg xmlns="http://www.w3.org/2000/svg" viewBox="0 0 56 56"><defs><style>.a{fill:#373737;}.b{fill:#ffcb1e;}</style></defs><path class="a" d="M28,50a1,1,0,0,0-1,1v4a1,1,0,0,0,2,0V51A1,1,0,0,0,28,50Z"/><path class="a" d="M28,6a1,1,0,0,0,1-1V1a1,1,0,0,0-2,0V5A1,1,0,0,0,28,6Z"/><circle class="b" cx="28" cy="28" r="17"/><path class="a" d="M28,46A18,18,0,1,1,46,28,18,18,0,0,1,28,46Zm0-34A16,16,0,1,0,44,28,16,16,0,0,0,28,12Z"/><path class="a" d="M43.56,43.56a1,1,0,0,0,0,1.41l2.82,2.83a1,1,0,1,0,1.42-1.42L45,43.56A1,1,0,0,0,43.56,43.56Z"/><path class="a" d="M12.44,12.44a1,1,0,0,0,0-1.41L9.62,8.2A1,1,0,0,0,8.2,9.62L11,12.44A1,1,0,0,0,12.44,12.44Z"/><path class="a" d="M50,28a1,1,0,0,0,1,1h4a1,1,0,0,0,0-2H51A1,1,0,0,0,50,28Z"/><path class="a" d="M6,28a1,1,0,0,0-1-1H1a1,1,0,0,0,0,2H5A1,1,0,0,0,6,28Z"/><path class="a" d="M43.56,12.44a1,1,0,0,0,1.41,0L47.8,9.62A1,1,0,1,0,46.38,8.2L43.56,11A1,1,0,0,0,43.56,12.44Z"/><path class="a" d="M12.44,43.56a1,1,0,0,0-1.41,0L8.2,46.38A1,1,0,1,0,9.62,47.8L12.44,45A1,1,0,0,0,12.44,43.56Z"/></svg>