<svg xmlns="http://www.w3.org/2000/svg" viewBox="0 0 56 41"><defs><style>.a{fill:#373737;}.b{fill:#fff;}.c{fill:#ffcb1e;}</style></defs><path class="a" d="M37,5a1,1,0,0,0,1-1V1a1,1,0,0,0-2,0V4A1,1,0,0,0,37,5Z"/><path class="a" d="M27.1,9.1a1,1,0,0,0,0-1.41L25,5.56A1,1,0,1,0,23.56,7L25.69,9.1A1,1,0,0,0,27.1,9.1Z"/><path class="a" d="M46.9,9.1a1,1,0,0,1,0-1.41L49,5.56A1,1,0,1,1,50.44,7L48.31,9.1A1,1,0,0,1,46.9,9.1Z"/><path class="a" d="M56,19a1,1,0,0,0-1-1H52a1,1,0,0,0,0,2h3A1,1,0,0,0,56,19Z"/><path class="b" d="M44,26a6.53,6.53,0,0,0-1,.08V26a9,9,0,0,0-13.19-8A11,11,0,0,0,9.47,26.16,7.19,7.19,0,0,0,8,26,7,7,0,0,0,8,40H44a7,7,0,0,0,0-14Z"/><path class="a" d="M44,41H8a8,8,0,1,1,.17-16A12.18,12.18,0,0,1,8,23a12,12,0,0,1,22.23-6.26A10,10,0,0,1,44,25h0a8,8,0,0,1,0,16ZM8,27A6,6,0,0,0,8,39H44a6,6,0,0,0,0-12,5.61,5.61,0,0,0-.86.07,1,1,0,0,1-1.14-1V26a8,8,0,0,0-11.73-7,1,1,0,0,1-1.35-.43,10,10,0,0,0-18.5,7.38,1,1,0,0,1-1.16,1.26A6.82,6.82,0,0,0,8,27Z"/><path class="c" d="M29.81,18A9,9,0,0,1,43,26v.08A6.53,6.53,0,0,1,44,26a7.56,7.56,0,0,1,1.36.13A11,11,0,1,0,27,14.5,11.24,11.24,0,0,1,29.81,18Z"/><path class="a" d="M45.36,27.13h-.19a5.43,5.43,0,0,0-2-.05,1,1,0,0,1-1.14-1V26a8,8,0,0,0-11.73-7,1,1,0,0,1-1.35-.43,10.07,10.07,0,0,0-2.59-3.22,1,1,0,0,1-.27-1.18A12,12,0,1,1,46.12,26.78,1,1,0,0,1,45.36,27.13ZM44,25a7.69,7.69,0,0,1,1,.06A10,10,0,1,0,28.2,14.26a11.78,11.78,0,0,1,2,2.48A10,10,0,0,1,44,25Z"/></svg>