<svg xmlns="http://www.w3.org/2000/svg" viewBox="0 0 54 54"><defs><style>.a{fill:#ffcb1e;}.b{fill:#373737;}.c{fill:#ffeaa5;}</style></defs><path class="a" d="M11.44,24.3A18.2,18.2,0,0,1,14,15,19.57,19.57,0,1,0,39,40,18.27,18.27,0,0,1,11.44,24.3Z"/><path class="b" d="M20.57,54a20.57,20.57,0,0,1-6.93-39.94,1,1,0,0,1,1.11.3,1,1,0,0,1,.09,1.15A17.27,17.27,0,0,0,38.49,39.16a1,1,0,0,1,1.45,1.19A20.61,20.61,0,0,1,20.57,54ZM11.86,17A18.57,18.57,0,1,0,37,42.14,19.27,19.27,0,0,1,11.86,17Z"/><path class="c" d="M38.06,3.94l-.72-2.68a.35.35,0,0,0-.68,0l-.72,2.68a4.28,4.28,0,0,1-3,3l-2.68.72a.35.35,0,0,0,0,.68l2.68.72a4.28,4.28,0,0,1,3,3l.72,2.68a.35.35,0,0,0,.68,0l.72-2.68a4.28,4.28,0,0,1,3-3l2.68-.72a.35.35,0,0,0,0-.68l-2.68-.72A4.28,4.28,0,0,1,38.06,3.94Z"/><path class="b" d="M37,16a1.34,1.34,0,0,1-1.31-1L35,12.32A3.27,3.27,0,0,0,32.68,10L30,9.31a1.36,1.36,0,0,1,0-2.62L32.68,6A3.27,3.27,0,0,0,35,3.68L35.69,1a1.36,1.36,0,0,1,2.62,0L39,3.68A3.27,3.27,0,0,0,41.32,6L44,6.69a1.36,1.36,0,0,1,0,2.62L41.32,10A3.27,3.27,0,0,0,39,12.32L38.31,15A1.34,1.34,0,0,1,37,16ZM32.84,8l.36.1a5.24,5.24,0,0,1,3.7,3.7l.1.36.1-.36a5.24,5.24,0,0,1,3.7-3.7l.36-.1-.36-.1a5.24,5.24,0,0,1-3.7-3.7h0L37,3.84l-.1.36a5.24,5.24,0,0,1-3.7,3.7Zm10.64.62h0Z"/><path class="c" d="M47.91,24.52l-.62-2.3a.3.3,0,0,0-.58,0l-.62,2.3a3.66,3.66,0,0,1-2.57,2.57l-2.3.62a.3.3,0,0,0,0,.58l2.3.62a3.66,3.66,0,0,1,2.57,2.57l.62,2.3a.3.3,0,0,0,.58,0l.62-2.3a3.66,3.66,0,0,1,2.57-2.57l2.3-.62a.3.3,0,0,0,0-.58l-2.3-.62A3.66,3.66,0,0,1,47.91,24.52Z"/><path class="b" d="M47,35a1.3,1.3,0,0,1-1.26-1l-.62-2.3a2.61,2.61,0,0,0-1.86-1.86L41,29.26a1.31,1.31,0,0,1,0-2.52l2.3-.62a2.61,2.61,0,0,0,1.86-1.86l.62-2.3a1.31,1.31,0,0,1,2.52,0l.62,2.3h0a2.61,2.61,0,0,0,1.86,1.86l2.3.62a1.31,1.31,0,0,1,0,2.52l-2.3.62a2.61,2.61,0,0,0-1.86,1.86L48.26,34A1.3,1.3,0,0,1,47,35Zm-3-7a4.63,4.63,0,0,1,3,3,4.63,4.63,0,0,1,3-3,4.63,4.63,0,0,1-3-3A4.63,4.63,0,0,1,44,28Z"/><path class="c" d="M27.91,21.52l-.62-2.3a.3.3,0,0,0-.58,0l-.62,2.3a3.66,3.66,0,0,1-2.57,2.57l-2.3.62a.3.3,0,0,0,0,.58l2.3.62a3.66,3.66,0,0,1,2.57,2.57l.62,2.3a.3.3,0,0,0,.58,0l.62-2.3a3.66,3.66,0,0,1,2.57-2.57l2.3-.62a.3.3,0,0,0,0-.58l-2.3-.62A3.66,3.66,0,0,1,27.91,21.52Z"/><path class="b" d="M27,32a1.3,1.3,0,0,1-1.26-1l-.62-2.3a2.61,2.61,0,0,0-1.86-1.86L21,26.26a1.31,1.31,0,0,1,0-2.52l2.3-.62a2.61,2.61,0,0,0,1.86-1.86l.62-2.3a1.31,1.31,0,0,1,2.52,0l.62,2.3h0a2.61,2.61,0,0,0,1.86,1.86l2.3.62a1.31,1.31,0,0,1,0,2.52l-2.3.62a2.61,2.61,0,0,0-1.86,1.86L28.26,31A1.3,1.3,0,0,1,27,32Zm-3-7a4.63,4.63,0,0,1,3,3,4.63,4.63,0,0,1,3-3,4.63,4.63,0,0,1-3-3A4.63,4.63,0,0,1,24,25Z"/></svg>