<svg xmlns="http://www.w3.org/2000/svg" viewBox="0 0 58 39"><defs><style>.a{fill:#fff;}.b{fill:#373737;}.c{fill:#ffcb1e;}</style></defs><path class="a" d="M44,24a6.53,6.53,0,0,0-1,.08V24a9,9,0,0,0-13.19-8A11,11,0,0,0,9.47,24.16,7.19,7.19,0,0,0,8,24,7,7,0,0,0,8,38H44a7,7,0,0,0,0-14Z"/><path class="b" d="M44,39H8a8,8,0,1,1,.17-16A12.18,12.18,0,0,1,8,21a12,12,0,0,1,22.23-6.26A10,10,0,0,1,44,23h0a8,8,0,0,1,0,16ZM8,25A6,6,0,0,0,8,37H44a6,6,0,0,0,0-12,5.61,5.61,0,0,0-.86.07,1,1,0,0,1-.8-.23,1,1,0,0,1-.34-.76V24a8,8,0,0,0-8-8,7.91,7.91,0,0,0-3.72.92,1,1,0,0,1-.77.07,1,1,0,0,1-.59-.5A10,10,0,0,0,10,21a10.07,10.07,0,0,0,.42,2.87,1,1,0,0,1-1.16,1.26A6.74,6.74,0,0,0,8,25Z"/><path class="c" d="M51.13,18.41A11.53,11.53,0,0,1,41.2,1,12.36,12.36,0,0,0,33,12.64a12,12,0,0,0,.24,2.41c.25,0,.5-.05.76-.05a9,9,0,0,1,9,9v.08A6.53,6.53,0,0,1,44,24a7,7,0,0,1,3.33.84,12.37,12.37,0,0,0,9.67-8A11.48,11.48,0,0,1,51.13,18.41Z"/><path class="b" d="M47.33,25.84a1,1,0,0,1-.47-.12A6,6,0,0,0,44,25a5.61,5.61,0,0,0-.86.07,1,1,0,0,1-.8-.23,1,1,0,0,1-.34-.76V24a8,8,0,0,0-8-8c-.19,0-.38,0-.57,0h-.11a1,1,0,0,1-1.06-.8A13.33,13.33,0,0,1,40.86.06,1,1,0,0,1,42,.36a1,1,0,0,1,.09,1.15A10.53,10.53,0,0,0,56.49,15.94a1,1,0,0,1,1.45,1.2,13.35,13.35,0,0,1-10.45,8.69ZM44,23h0a8.07,8.07,0,0,1,3.49.8,11.34,11.34,0,0,0,7.4-5A12.53,12.53,0,0,1,39.17,3.12,11.38,11.38,0,0,0,34,12.64,12.4,12.4,0,0,0,34.08,14,10,10,0,0,1,44,23Z"/></svg>