<svg xmlns="http://www.w3.org/2000/svg" viewBox="0 0 48 27"><defs><style>.a{fill:#d2e2f0;}.b{fill:#373737;}</style></defs><path class="a" d="M1,1.5A7.37,7.37,0,0,1,5.6,0c4.6,0,4.6,3,9.2,3S19.4,0,24,0s4.6,3,9.2,3,4.6-3,9.2-3A7.37,7.37,0,0,1,47,1.5v24A7.37,7.37,0,0,0,42.4,24c-4.6,0-4.6,3-9.2,3s-4.6-3-9.2-3-4.6,3-9.2,3-4.6-3-9.2-3A7.37,7.37,0,0,0,1,25.5"/><path class="b" d="M33.2,12a8.37,8.37,0,0,1-5.15-1.66A6.39,6.39,0,0,0,24,9,6.39,6.39,0,0,0,20,10.34,8.37,8.37,0,0,1,14.8,12a8.37,8.37,0,0,1-5.15-1.66A6.39,6.39,0,0,0,5.6,9a6.39,6.39,0,0,0-4,1.34A1,1,0,0,1,.45,8.66,8.37,8.37,0,0,1,5.6,7a8.31,8.31,0,0,1,5.14,1.66A6.44,6.44,0,0,0,14.8,10a6.39,6.39,0,0,0,4.05-1.34A8.37,8.37,0,0,1,24,7a8.37,8.37,0,0,1,5.15,1.66A6.39,6.39,0,0,0,33.2,10a6.44,6.44,0,0,0,4.06-1.34,8.8,8.8,0,0,1,10.29,0,1,1,0,1,1-1.1,1.68,6.79,6.79,0,0,0-8.1,0A8.37,8.37,0,0,1,33.2,12Z"/><path class="b" d="M33.2,20a8.37,8.37,0,0,1-5.15-1.66A6.39,6.39,0,0,0,24,17,6.39,6.39,0,0,0,20,18.34,8.37,8.37,0,0,1,14.8,20a8.37,8.37,0,0,1-5.15-1.66A6.39,6.39,0,0,0,5.6,17a6.39,6.39,0,0,0-4,1.34,1,1,0,0,1-1.1-1.68A8.37,8.37,0,0,1,5.6,15a8.31,8.31,0,0,1,5.14,1.66A6.44,6.44,0,0,0,14.8,18a6.39,6.39,0,0,0,4.05-1.34A8.37,8.37,0,0,1,24,15a8.37,8.37,0,0,1,5.15,1.66,6.81,6.81,0,0,0,8.11,0,8.8,8.8,0,0,1,10.29,0,1,1,0,1,1-1.1,1.68,6.79,6.79,0,0,0-8.1,0A8.37,8.37,0,0,1,33.2,20Z"/></svg>