<svg xmlns="http://www.w3.org/2000/svg" viewBox="0 0 52 58"><defs><style>.a{fill:#fff;}.b{fill:#373737;}.c{fill:#d2e2f0;}</style></defs><path class="a" d="M44,15a6.53,6.53,0,0,0-1,.08V15A9,9,0,0,0,29.81,7,11,11,0,0,0,9.47,15.16,7.19,7.19,0,0,0,8,15,7,7,0,0,0,8,29H44a7,7,0,0,0,0-14Z"/><path class="b" d="M44,30H8A8,8,0,0,1,8,14h.17A12.18,12.18,0,0,1,8,12,12,12,0,0,1,30.23,5.74,10,10,0,0,1,44,14h0a8,8,0,0,1,0,16ZM8,16A6,6,0,0,0,8,28H44a6,6,0,0,0,0-12,5.61,5.61,0,0,0-.86.07,1,1,0,0,1-.8-.23,1,1,0,0,1-.34-.76V15a8,8,0,0,0-8-8,7.91,7.91,0,0,0-3.72.92,1,1,0,0,1-.77.07,1,1,0,0,1-.59-.5A10,10,0,0,0,10,12a10.07,10.07,0,0,0,.42,2.87,1,1,0,0,1-1.16,1.26A6.74,6.74,0,0,0,8,16Z"/><path class="c" d="M22.88,42.62a3,3,0,0,0,4.24,0A3,3,0,0,0,28,40.5V33l-5.12,5.38A3,3,0,0,0,22.88,42.62Z"/><path class="b" d="M25,44.5a4,4,0,0,1-2.83-1.17h0a4,4,0,0,1,0-5.66l5.11-5.36a1,1,0,0,1,1.09-.24A1,1,0,0,1,29,33v7.5a4,4,0,0,1-4,4Zm2-9-3.4,3.57A2,2,0,0,0,23,40.5a2,2,0,0,0,.59,1.41h0a2,2,0,0,0,2.82,0A2,2,0,0,0,27,40.5Z"/><path class="c" d="M8.88,42.62a3,3,0,0,0,4.24,0A3,3,0,0,0,14,40.5V33L8.88,38.38A3,3,0,0,0,8.88,42.62Z"/><path class="b" d="M11,44.5a4,4,0,0,1-2.83-1.17h0a4,4,0,0,1,0-5.66l5.11-5.36a1,1,0,0,1,1.09-.24A1,1,0,0,1,15,33v7.5a4,4,0,0,1-4,4Zm2-9L9.6,39.07A2,2,0,0,0,9,40.5a2,2,0,0,0,.59,1.41h0a2,2,0,0,0,2.82,0A2,2,0,0,0,13,40.5Z"/><path class="c" d="M36.88,42.62a3,3,0,0,0,4.24,0A3,3,0,0,0,42,40.5V33l-5.12,5.38A3,3,0,0,0,36.88,42.62Z"/><path class="b" d="M39,44.5a4,4,0,0,1-2.83-1.17h0a4,4,0,0,1,0-5.66l5.11-5.36a1,1,0,0,1,1.09-.24A1,1,0,0,1,43,33v7.5a4,4,0,0,1-4,4Zm2-9-3.4,3.57A2,2,0,0,0,37,40.5a2,2,0,0,0,.59,1.41h0a2,2,0,0,0,2.82,0A2,2,0,0,0,41,40.5Z"/><path class="c" d="M27.88,56.12a3,3,0,0,0,4.24,0A3,3,0,0,0,33,54V46.5l-5.12,5.38A3,3,0,0,0,27.88,56.12Z"/><path class="b" d="M30,58a4,4,0,0,1-2.83-1.17h0a4,4,0,0,1,0-5.66l5.11-5.36a1,1,0,0,1,1.09-.24,1,1,0,0,1,.63.93V54a4,4,0,0,1-4,4Zm2-9-3.4,3.57A2,2,0,0,0,28,54a2,2,0,0,0,.59,1.41h0a2,2,0,0,0,2.82,0A2,2,0,0,0,32,54Z"/><path class="c" d="M13.88,56.12a3,3,0,0,0,4.24,0A3,3,0,0,0,19,54V46.5l-5.12,5.38A3,3,0,0,0,13.88,56.12Z"/><path class="b" d="M16,58a4,4,0,0,1-2.83-1.17h0a4,4,0,0,1,0-5.66l5.11-5.36a1,1,0,0,1,1.09-.24,1,1,0,0,1,.63.93V54a4,4,0,0,1-4,4Zm2-9-3.4,3.57A2,2,0,0,0,14,54a2,2,0,0,0,.59,1.41h0a2,2,0,0,0,2.82,0A2,2,0,0,0,18,54Z"/></svg>