<svg xmlns="http://www.w3.org/2000/svg" viewBox="0 0 52 52"><defs><style>.a{fill:#fff;}.b{fill:#373737;}</style></defs><circle class="a" cx="17.5" cy="48" r="3"/><path class="b" d="M17.5,52a4,4,0,1,1,4-4A4,4,0,0,1,17.5,52Zm0-6a2,2,0,1,0,2,2A2,2,0,0,0,17.5,46Z"/><circle class="a" cx="34.5" cy="48" r="3"/><path class="b" d="M34.5,52a4,4,0,1,1,4-4A4,4,0,0,1,34.5,52Zm0-6a2,2,0,1,0,2,2A2,2,0,0,0,34.5,46Z"/><circle class="a" cx="9" cy="37" r="3"/><path class="b" d="M9,41a4,4,0,1,1,4-4A4,4,0,0,1,9,41Zm0-6a2,2,0,1,0,2,2A2,2,0,0,0,9,35Z"/><circle class="a" cx="26" cy="37" r="3"/><path class="b" d="M26,41a4,4,0,1,1,4-4A4,4,0,0,1,26,41Zm0-6a2,2,0,1,0,2,2A2,2,0,0,0,26,35Z"/><circle class="a" cx="43" cy="37" r="3"/><path class="b" d="M43,41a4,4,0,1,1,4-4A4,4,0,0,1,43,41Zm0-6a2,2,0,1,0,2,2A2,2,0,0,0,43,35Z"/><path class="a" d="M44,15a6.53,6.53,0,0,0-1,.08V15A9,9,0,0,0,29.81,7,11,11,0,0,0,9.47,15.16,7.19,7.19,0,0,0,8,15,7,7,0,0,0,8,29H44a7,7,0,0,0,0-14Z"/><path class="b" d="M44,30H8a8,8,0,1,1,.17-16A12.18,12.18,0,0,1,8,12,12,12,0,0,1,30.23,5.74,10,10,0,0,1,44,14a8,8,0,1,1,0,16ZM8,16A6,6,0,0,0,8,28H44a6,6,0,0,0,0-12,5.61,5.61,0,0,0-.86.07,1,1,0,0,1-1.14-1V15a8,8,0,0,0-11.73-7,1,1,0,0,1-1.35-.43,10,10,0,0,0-18.5,7.38,1,1,0,0,1-1.16,1.26A6.82,6.82,0,0,0,8,16Z"/></svg>