<svg xmlns="http://www.w3.org/2000/svg" viewBox="0 0 52 55.75"><defs><style>.a{fill:#d2e2f0;}.b{fill:#373737;}.c{fill:#ffcb1e;}.d{fill:#fff;}</style></defs><path class="a" d="M3.88,38.38a3,3,0,0,0,4.24,4.24A3,3,0,0,0,9,40.5V33Z"/><path class="b" d="M6,44.5a4,4,0,0,1-2.84-6.82l5.12-5.37a1,1,0,0,1,1.09-.24A1,1,0,0,1,10,33v7.5a4,4,0,0,1-4,4Zm2-9L4.6,39.07v0a2,2,0,0,0,0,2.82,2,2,0,0,0,2.82,0A2,2,0,0,0,8,40.5ZM3.88,38.38h0Z"/><path class="a" d="M40.88,38.38a3,3,0,0,0,4.24,4.24A3,3,0,0,0,46,40.5V33Z"/><path class="b" d="M43,44.5a4,4,0,0,1-2.84-6.82l5.12-5.37a1,1,0,0,1,1.09-.24A1,1,0,0,1,47,33v7.5a4,4,0,0,1-4,4Zm2-9-3.4,3.57v0a2,2,0,0,0,0,2.82,2,2,0,0,0,2.82,0A2,2,0,0,0,45,40.5Zm-4.12,2.88h0Z"/><path class="a" d="M9.88,49.63a3,3,0,0,0,4.24,4.24A3,3,0,0,0,15,51.75v-7.5Z"/><path class="b" d="M12,55.75a4,4,0,0,1-2.84-6.82l5.12-5.37a1,1,0,0,1,1.72.69v7.5a4,4,0,0,1-4,4Zm2-9-3.4,3.57v0a2,2,0,0,0,0,2.82,2,2,0,0,0,2.82,0A2,2,0,0,0,14,51.75ZM9.88,49.63h0Z"/><path class="a" d="M30.88,49.63a3,3,0,0,0,4.24,4.24A3,3,0,0,0,36,51.75v-7.5Z"/><path class="b" d="M33,55.75a4,4,0,0,1-2.84-6.82l5.12-5.37a1,1,0,0,1,1.72.69v7.5a4,4,0,0,1-4,4Zm2-9-3.4,3.57v0a2,2,0,0,0,0,2.82,2,2,0,0,0,2.82,0A2,2,0,0,0,35,51.75Zm-4.12,2.88h0Z"/><polygon class="c" points="33 25 24 25 17 39 27 39 21 51 36 35 28 35 33 25"/><path class="b" d="M21,52a1,1,0,0,1-.89-1.45L25.38,40H17a1,1,0,0,1-.89-1.45l7-14A1,1,0,0,1,24,24h9a1,1,0,0,1,.89,1.45L29.62,34H36a1,1,0,0,1,.92.6,1,1,0,0,1-.19,1.08l-15,16A1,1,0,0,1,21,52ZM18.62,38H27a1,1,0,0,1,.89,1.45L25,45.31,33.69,36H28a1,1,0,0,1-.89-1.45L31.38,26H24.62Z"/><path class="d" d="M44,15a6.53,6.53,0,0,0-1,.08V15A9,9,0,0,0,29.81,7,11,11,0,0,0,9.47,15.16,7.19,7.19,0,0,0,8,15,7,7,0,0,0,8,29H22l2-4h9l-2,4H44a7,7,0,0,0,0-14Z"/><path class="b" d="M44,30H31a1,1,0,0,1-.89-1.45L31.38,26H24.62l-1.73,3.45A1,1,0,0,1,22,30H8A8,8,0,0,1,8,14h.17A12.18,12.18,0,0,1,8,12,12,12,0,0,1,30.23,5.74,10,10,0,0,1,44,14h0a8,8,0,0,1,0,16ZM32.62,28H44a6,6,0,0,0,0-12,5.61,5.61,0,0,0-.86.07,1,1,0,0,1-.8-.23,1,1,0,0,1-.34-.76V15a8,8,0,0,0-8-8,7.91,7.91,0,0,0-3.72.92,1,1,0,0,1-.77.07,1,1,0,0,1-.59-.5A10,10,0,0,0,10,12a10.07,10.07,0,0,0,.42,2.87,1,1,0,0,1-1.16,1.26A6.74,6.74,0,0,0,8,16,6,6,0,0,0,8,28H21.38l1.73-3.45A1,1,0,0,1,24,24h9a1,1,0,0,1,.89,1.45Z"/></svg>